<svg version="1.1" id="Layer_1" xmlns="http://www.w3.org/2000/svg" xmlns:xlink="http://www.w3.org/1999/xlink" x="0px" y="0px"
	 width="512px" height="512px" viewBox="0 0 512 512" enable-background="new 0 0 512 512" xml:space="preserve">
<g>
	<path d="M256,0C114.625,0,0,114.625,0,256s114.625,256,256,256s256-114.625,256-256S397.375,0,256,0z M224,224
		c0-17.664,14.336-32,32-32c17.656,0,32,14.336,32,32v160c0,17.656-14.344,32-32,32c-17.664,0-32-14.344-32-32V224z M256,160.516
		c-17.664,0-32-14.344-32-32c0-17.672,14.336-32,32-32c17.656,0,32,14.328,32,32C288,146.172,273.656,160.516,256,160.516z"/>
</g>
</svg>
